<svg height="1964pt" viewBox="0.00 0.00 572.00 1964.00" width="572pt" xmlns="http://www.w3.org/2000/svg" xmlns:xlink="http://www.w3.org/1999/xlink">
<g class="graph" id="graph0" transform="scale(1 1) rotate(0) translate(4 1960)">
<title>G</title>
<polygon fill="white" points="-4,4 -4,-1960 568,-1960 568,4 -4,4" stroke="none"/>
<!-- 140057024277472 -->
<g class="node" id="node1"><title>140057024277472</title>
<polygon fill="none" points="86,-1909.5 86,-1955.5 478,-1955.5 478,-1909.5 86,-1909.5" stroke="black"/>
<text font-family="Times,serif" font-size="14.00" text-anchor="middle" x="175" y="-1928.8">input_176: InputLayer</text>
<polyline fill="none" points="264,-1909.5 264,-1955.5 " stroke="black"/>
<text font-family="Times,serif" font-size="14.00" text-anchor="middle" x="298" y="-1940.3">input:</text>
<polyline fill="none" points="264,-1932.5 332,-1932.5 " stroke="black"/>
<text font-family="Times,serif" font-size="14.00" text-anchor="middle" x="298" y="-1917.3">output:</text>
<polyline fill="none" points="332,-1909.5 332,-1955.5 " stroke="black"/>
<text font-family="Times,serif" font-size="14.00" text-anchor="middle" x="405" y="-1940.3">(None, 24, 500, 1)</text>
<polyline fill="none" points="332,-1932.5 478,-1932.5 " stroke="black"/>
<text font-family="Times,serif" font-size="14.00" text-anchor="middle" x="405" y="-1917.3">(None, 24, 500, 1)</text>
</g>
<!-- 140057024277136 -->
<g class="node" id="node2"><title>140057024277136</title>
<polygon fill="none" points="0,-1826.5 0,-1872.5 564,-1872.5 564,-1826.5 0,-1826.5" stroke="black"/>
<text font-family="Times,serif" font-size="14.00" text-anchor="middle" x="175" y="-1845.8">batch_normalization_503: BatchNormalization</text>
<polyline fill="none" points="350,-1826.5 350,-1872.5 " stroke="black"/>
<text font-family="Times,serif" font-size="14.00" text-anchor="middle" x="384" y="-1857.3">input:</text>
<polyline fill="none" points="350,-1849.5 418,-1849.5 " stroke="black"/>
<text font-family="Times,serif" font-size="14.00" text-anchor="middle" x="384" y="-1834.3">output:</text>
<polyline fill="none" points="418,-1826.5 418,-1872.5 " stroke="black"/>
<text font-family="Times,serif" font-size="14.00" text-anchor="middle" x="491" y="-1857.3">(None, 24, 500, 1)</text>
<polyline fill="none" points="418,-1849.5 564,-1849.5 " stroke="black"/>
<text font-family="Times,serif" font-size="14.00" text-anchor="middle" x="491" y="-1834.3">(None, 24, 500, 1)</text>
</g>
<!-- 140057024277472&#45;&gt;140057024277136 -->
<g class="edge" id="edge1"><title>140057024277472-&gt;140057024277136</title>
<path d="M282,-1909.37C282,-1901.15 282,-1891.66 282,-1882.73" fill="none" stroke="black"/>
<polygon fill="black" points="285.5,-1882.61 282,-1872.61 278.5,-1882.61 285.5,-1882.61" stroke="black"/>
</g>
<!-- 140057024276576 -->
<g class="node" id="node3"><title>140057024276576</title>
<polygon fill="none" points="90.5,-1743.5 90.5,-1789.5 473.5,-1789.5 473.5,-1743.5 90.5,-1743.5" stroke="black"/>
<text font-family="Times,serif" font-size="14.00" text-anchor="middle" x="175" y="-1762.8">conv2d_408: Conv2D</text>
<polyline fill="none" points="259.5,-1743.5 259.5,-1789.5 " stroke="black"/>
<text font-family="Times,serif" font-size="14.00" text-anchor="middle" x="293.5" y="-1774.3">input:</text>
<polyline fill="none" points="259.5,-1766.5 327.5,-1766.5 " stroke="black"/>
<text font-family="Times,serif" font-size="14.00" text-anchor="middle" x="293.5" y="-1751.3">output:</text>
<polyline fill="none" points="327.5,-1743.5 327.5,-1789.5 " stroke="black"/>
<text font-family="Times,serif" font-size="14.00" text-anchor="middle" x="400.5" y="-1774.3">(None, 24, 500, 1)</text>
<polyline fill="none" points="327.5,-1766.5 473.5,-1766.5 " stroke="black"/>
<text font-family="Times,serif" font-size="14.00" text-anchor="middle" x="400.5" y="-1751.3">(None, 24, 500, 6)</text>
</g>
<!-- 140057024277136&#45;&gt;140057024276576 -->
<g class="edge" id="edge2"><title>140057024277136-&gt;140057024276576</title>
<path d="M282,-1826.37C282,-1818.15 282,-1808.66 282,-1799.73" fill="none" stroke="black"/>
<polygon fill="black" points="285.5,-1799.61 282,-1789.61 278.5,-1799.61 285.5,-1799.61" stroke="black"/>
</g>
<!-- 140057078475800 -->
<g class="node" id="node4"><title>140057078475800</title>
<polygon fill="none" points="39,-1660.5 39,-1706.5 525,-1706.5 525,-1660.5 39,-1660.5" stroke="black"/>
<text font-family="Times,serif" font-size="14.00" text-anchor="middle" x="175" y="-1679.8">max_pooling2d_328: MaxPooling2D</text>
<polyline fill="none" points="311,-1660.5 311,-1706.5 " stroke="black"/>
<text font-family="Times,serif" font-size="14.00" text-anchor="middle" x="345" y="-1691.3">input:</text>
<polyline fill="none" points="311,-1683.5 379,-1683.5 " stroke="black"/>
<text font-family="Times,serif" font-size="14.00" text-anchor="middle" x="345" y="-1668.3">output:</text>
<polyline fill="none" points="379,-1660.5 379,-1706.5 " stroke="black"/>
<text font-family="Times,serif" font-size="14.00" text-anchor="middle" x="452" y="-1691.3">(None, 24, 500, 6)</text>
<polyline fill="none" points="379,-1683.5 525,-1683.5 " stroke="black"/>
<text font-family="Times,serif" font-size="14.00" text-anchor="middle" x="452" y="-1668.3">(None, 12, 250, 6)</text>
</g>
<!-- 140057024276576&#45;&gt;140057078475800 -->
<g class="edge" id="edge3"><title>140057024276576-&gt;140057078475800</title>
<path d="M282,-1743.37C282,-1735.15 282,-1725.66 282,-1716.73" fill="none" stroke="black"/>
<polygon fill="black" points="285.5,-1716.61 282,-1706.61 278.5,-1716.61 285.5,-1716.61" stroke="black"/>
</g>
<!-- 140057078415312 -->
<g class="node" id="node5"><title>140057078415312</title>
<polygon fill="none" points="0,-1577.5 0,-1623.5 564,-1623.5 564,-1577.5 0,-1577.5" stroke="black"/>
<text font-family="Times,serif" font-size="14.00" text-anchor="middle" x="175" y="-1596.8">batch_normalization_504: BatchNormalization</text>
<polyline fill="none" points="350,-1577.5 350,-1623.5 " stroke="black"/>
<text font-family="Times,serif" font-size="14.00" text-anchor="middle" x="384" y="-1608.3">input:</text>
<polyline fill="none" points="350,-1600.5 418,-1600.5 " stroke="black"/>
<text font-family="Times,serif" font-size="14.00" text-anchor="middle" x="384" y="-1585.3">output:</text>
<polyline fill="none" points="418,-1577.5 418,-1623.5 " stroke="black"/>
<text font-family="Times,serif" font-size="14.00" text-anchor="middle" x="491" y="-1608.3">(None, 12, 250, 6)</text>
<polyline fill="none" points="418,-1600.5 564,-1600.5 " stroke="black"/>
<text font-family="Times,serif" font-size="14.00" text-anchor="middle" x="491" y="-1585.3">(None, 12, 250, 6)</text>
</g>
<!-- 140057078475800&#45;&gt;140057078415312 -->
<g class="edge" id="edge4"><title>140057078475800-&gt;140057078415312</title>
<path d="M282,-1660.37C282,-1652.15 282,-1642.66 282,-1633.73" fill="none" stroke="black"/>
<polygon fill="black" points="285.5,-1633.61 282,-1623.61 278.5,-1633.61 285.5,-1633.61" stroke="black"/>
</g>
<!-- 140057024513920 -->
<g class="node" id="node6"><title>140057024513920</title>
<polygon fill="none" points="87.5,-1494.5 87.5,-1540.5 476.5,-1540.5 476.5,-1494.5 87.5,-1494.5" stroke="black"/>
<text font-family="Times,serif" font-size="14.00" text-anchor="middle" x="175" y="-1513.8">dropout_415: Dropout</text>
<polyline fill="none" points="262.5,-1494.5 262.5,-1540.5 " stroke="black"/>
<text font-family="Times,serif" font-size="14.00" text-anchor="middle" x="296.5" y="-1525.3">input:</text>
<polyline fill="none" points="262.5,-1517.5 330.5,-1517.5 " stroke="black"/>
<text font-family="Times,serif" font-size="14.00" text-anchor="middle" x="296.5" y="-1502.3">output:</text>
<polyline fill="none" points="330.5,-1494.5 330.5,-1540.5 " stroke="black"/>
<text font-family="Times,serif" font-size="14.00" text-anchor="middle" x="403.5" y="-1525.3">(None, 12, 250, 6)</text>
<polyline fill="none" points="330.5,-1517.5 476.5,-1517.5 " stroke="black"/>
<text font-family="Times,serif" font-size="14.00" text-anchor="middle" x="403.5" y="-1502.3">(None, 12, 250, 6)</text>
</g>
<!-- 140057078415312&#45;&gt;140057024513920 -->
<g class="edge" id="edge5"><title>140057078415312-&gt;140057024513920</title>
<path d="M282,-1577.37C282,-1569.15 282,-1559.66 282,-1550.73" fill="none" stroke="black"/>
<polygon fill="black" points="285.5,-1550.61 282,-1540.61 278.5,-1550.61 285.5,-1550.61" stroke="black"/>
</g>
<!-- 140058291149680 -->
<g class="node" id="node7"><title>140058291149680</title>
<polygon fill="none" points="86,-1411.5 86,-1457.5 478,-1457.5 478,-1411.5 86,-1411.5" stroke="black"/>
<text font-family="Times,serif" font-size="14.00" text-anchor="middle" x="170.5" y="-1430.8">conv2d_409: Conv2D</text>
<polyline fill="none" points="255,-1411.5 255,-1457.5 " stroke="black"/>
<text font-family="Times,serif" font-size="14.00" text-anchor="middle" x="289" y="-1442.3">input:</text>
<polyline fill="none" points="255,-1434.5 323,-1434.5 " stroke="black"/>
<text font-family="Times,serif" font-size="14.00" text-anchor="middle" x="289" y="-1419.3">output:</text>
<polyline fill="none" points="323,-1411.5 323,-1457.5 " stroke="black"/>
<text font-family="Times,serif" font-size="14.00" text-anchor="middle" x="400.5" y="-1442.3">(None, 12, 250, 6)</text>
<polyline fill="none" points="323,-1434.5 478,-1434.5 " stroke="black"/>
<text font-family="Times,serif" font-size="14.00" text-anchor="middle" x="400.5" y="-1419.3">(None, 12, 250, 12)</text>
</g>
<!-- 140057024513920&#45;&gt;140058291149680 -->
<g class="edge" id="edge6"><title>140057024513920-&gt;140058291149680</title>
<path d="M282,-1494.37C282,-1486.15 282,-1476.66 282,-1467.73" fill="none" stroke="black"/>
<polygon fill="black" points="285.5,-1467.61 282,-1457.61 278.5,-1467.61 285.5,-1467.61" stroke="black"/>
</g>
<!-- 140058273989296 -->
<g class="node" id="node8"><title>140058273989296</title>
<polygon fill="none" points="34.5,-1328.5 34.5,-1374.5 529.5,-1374.5 529.5,-1328.5 34.5,-1328.5" stroke="black"/>
<text font-family="Times,serif" font-size="14.00" text-anchor="middle" x="170.5" y="-1347.8">max_pooling2d_329: MaxPooling2D</text>
<polyline fill="none" points="306.5,-1328.5 306.5,-1374.5 " stroke="black"/>
<text font-family="Times,serif" font-size="14.00" text-anchor="middle" x="340.5" y="-1359.3">input:</text>
<polyline fill="none" points="306.5,-1351.5 374.5,-1351.5 " stroke="black"/>
<text font-family="Times,serif" font-size="14.00" text-anchor="middle" x="340.5" y="-1336.3">output:</text>
<polyline fill="none" points="374.5,-1328.5 374.5,-1374.5 " stroke="black"/>
<text font-family="Times,serif" font-size="14.00" text-anchor="middle" x="452" y="-1359.3">(None, 12, 250, 12)</text>
<polyline fill="none" points="374.5,-1351.5 529.5,-1351.5 " stroke="black"/>
<text font-family="Times,serif" font-size="14.00" text-anchor="middle" x="452" y="-1336.3">(None, 6, 125, 12)</text>
</g>
<!-- 140058291149680&#45;&gt;140058273989296 -->
<g class="edge" id="edge7"><title>140058291149680-&gt;140058273989296</title>
<path d="M282,-1411.37C282,-1403.15 282,-1393.66 282,-1384.73" fill="none" stroke="black"/>
<polygon fill="black" points="285.5,-1384.61 282,-1374.61 278.5,-1384.61 285.5,-1384.61" stroke="black"/>
</g>
<!-- 140058273332920 -->
<g class="node" id="node9"><title>140058273332920</title>
<polygon fill="none" points="0,-1245.5 0,-1291.5 564,-1291.5 564,-1245.5 0,-1245.5" stroke="black"/>
<text font-family="Times,serif" font-size="14.00" text-anchor="middle" x="175" y="-1264.8">batch_normalization_505: BatchNormalization</text>
<polyline fill="none" points="350,-1245.5 350,-1291.5 " stroke="black"/>
<text font-family="Times,serif" font-size="14.00" text-anchor="middle" x="384" y="-1276.3">input:</text>
<polyline fill="none" points="350,-1268.5 418,-1268.5 " stroke="black"/>
<text font-family="Times,serif" font-size="14.00" text-anchor="middle" x="384" y="-1253.3">output:</text>
<polyline fill="none" points="418,-1245.5 418,-1291.5 " stroke="black"/>
<text font-family="Times,serif" font-size="14.00" text-anchor="middle" x="491" y="-1276.3">(None, 6, 125, 12)</text>
<polyline fill="none" points="418,-1268.5 564,-1268.5 " stroke="black"/>
<text font-family="Times,serif" font-size="14.00" text-anchor="middle" x="491" y="-1253.3">(None, 6, 125, 12)</text>
</g>
<!-- 140058273989296&#45;&gt;140058273332920 -->
<g class="edge" id="edge8"><title>140058273989296-&gt;140058273332920</title>
<path d="M282,-1328.37C282,-1320.15 282,-1310.66 282,-1301.73" fill="none" stroke="black"/>
<polygon fill="black" points="285.5,-1301.61 282,-1291.61 278.5,-1301.61 285.5,-1301.61" stroke="black"/>
</g>
<!-- 140058273330008 -->
<g class="node" id="node10"><title>140058273330008</title>
<polygon fill="none" points="87.5,-1162.5 87.5,-1208.5 476.5,-1208.5 476.5,-1162.5 87.5,-1162.5" stroke="black"/>
<text font-family="Times,serif" font-size="14.00" text-anchor="middle" x="175" y="-1181.8">dropout_416: Dropout</text>
<polyline fill="none" points="262.5,-1162.5 262.5,-1208.5 " stroke="black"/>
<text font-family="Times,serif" font-size="14.00" text-anchor="middle" x="296.5" y="-1193.3">input:</text>
<polyline fill="none" points="262.5,-1185.5 330.5,-1185.5 " stroke="black"/>
<text font-family="Times,serif" font-size="14.00" text-anchor="middle" x="296.5" y="-1170.3">output:</text>
<polyline fill="none" points="330.5,-1162.5 330.5,-1208.5 " stroke="black"/>
<text font-family="Times,serif" font-size="14.00" text-anchor="middle" x="403.5" y="-1193.3">(None, 6, 125, 12)</text>
<polyline fill="none" points="330.5,-1185.5 476.5,-1185.5 " stroke="black"/>
<text font-family="Times,serif" font-size="14.00" text-anchor="middle" x="403.5" y="-1170.3">(None, 6, 125, 12)</text>
</g>
<!-- 140058273332920&#45;&gt;140058273330008 -->
<g class="edge" id="edge9"><title>140058273332920-&gt;140058273330008</title>
<path d="M282,-1245.37C282,-1237.15 282,-1227.66 282,-1218.73" fill="none" stroke="black"/>
<polygon fill="black" points="285.5,-1218.61 282,-1208.61 278.5,-1218.61 285.5,-1218.61" stroke="black"/>
</g>
<!-- 140058273390264 -->
<g class="node" id="node11"><title>140058273390264</title>
<polygon fill="none" points="90.5,-1079.5 90.5,-1125.5 473.5,-1125.5 473.5,-1079.5 90.5,-1079.5" stroke="black"/>
<text font-family="Times,serif" font-size="14.00" text-anchor="middle" x="175" y="-1098.8">conv2d_410: Conv2D</text>
<polyline fill="none" points="259.5,-1079.5 259.5,-1125.5 " stroke="black"/>
<text font-family="Times,serif" font-size="14.00" text-anchor="middle" x="293.5" y="-1110.3">input:</text>
<polyline fill="none" points="259.5,-1102.5 327.5,-1102.5 " stroke="black"/>
<text font-family="Times,serif" font-size="14.00" text-anchor="middle" x="293.5" y="-1087.3">output:</text>
<polyline fill="none" points="327.5,-1079.5 327.5,-1125.5 " stroke="black"/>
<text font-family="Times,serif" font-size="14.00" text-anchor="middle" x="400.5" y="-1110.3">(None, 6, 125, 12)</text>
<polyline fill="none" points="327.5,-1102.5 473.5,-1102.5 " stroke="black"/>
<text font-family="Times,serif" font-size="14.00" text-anchor="middle" x="400.5" y="-1087.3">(None, 6, 125, 24)</text>
</g>
<!-- 140058273330008&#45;&gt;140058273390264 -->
<g class="edge" id="edge10"><title>140058273330008-&gt;140058273390264</title>
<path d="M282,-1162.37C282,-1154.15 282,-1144.66 282,-1135.73" fill="none" stroke="black"/>
<polygon fill="black" points="285.5,-1135.61 282,-1125.61 278.5,-1135.61 285.5,-1135.61" stroke="black"/>
</g>
<!-- 140058272284512 -->
<g class="node" id="node12"><title>140058272284512</title>
<polygon fill="none" points="39,-996.5 39,-1042.5 525,-1042.5 525,-996.5 39,-996.5" stroke="black"/>
<text font-family="Times,serif" font-size="14.00" text-anchor="middle" x="175" y="-1015.8">max_pooling2d_330: MaxPooling2D</text>
<polyline fill="none" points="311,-996.5 311,-1042.5 " stroke="black"/>
<text font-family="Times,serif" font-size="14.00" text-anchor="middle" x="345" y="-1027.3">input:</text>
<polyline fill="none" points="311,-1019.5 379,-1019.5 " stroke="black"/>
<text font-family="Times,serif" font-size="14.00" text-anchor="middle" x="345" y="-1004.3">output:</text>
<polyline fill="none" points="379,-996.5 379,-1042.5 " stroke="black"/>
<text font-family="Times,serif" font-size="14.00" text-anchor="middle" x="452" y="-1027.3">(None, 6, 125, 24)</text>
<polyline fill="none" points="379,-1019.5 525,-1019.5 " stroke="black"/>
<text font-family="Times,serif" font-size="14.00" text-anchor="middle" x="452" y="-1004.3">(None, 3, 63, 24)</text>
</g>
<!-- 140058273390264&#45;&gt;140058272284512 -->
<g class="edge" id="edge11"><title>140058273390264-&gt;140058272284512</title>
<path d="M282,-1079.37C282,-1071.15 282,-1061.66 282,-1052.73" fill="none" stroke="black"/>
<polygon fill="black" points="285.5,-1052.61 282,-1042.61 278.5,-1052.61 285.5,-1052.61" stroke="black"/>
</g>
<!-- 140058272360264 -->
<g class="node" id="node13"><title>140058272360264</title>
<polygon fill="none" points="4.5,-913.5 4.5,-959.5 559.5,-959.5 559.5,-913.5 4.5,-913.5" stroke="black"/>
<text font-family="Times,serif" font-size="14.00" text-anchor="middle" x="179.5" y="-932.8">batch_normalization_506: BatchNormalization</text>
<polyline fill="none" points="354.5,-913.5 354.5,-959.5 " stroke="black"/>
<text font-family="Times,serif" font-size="14.00" text-anchor="middle" x="388.5" y="-944.3">input:</text>
<polyline fill="none" points="354.5,-936.5 422.5,-936.5 " stroke="black"/>
<text font-family="Times,serif" font-size="14.00" text-anchor="middle" x="388.5" y="-921.3">output:</text>
<polyline fill="none" points="422.5,-913.5 422.5,-959.5 " stroke="black"/>
<text font-family="Times,serif" font-size="14.00" text-anchor="middle" x="491" y="-944.3">(None, 3, 63, 24)</text>
<polyline fill="none" points="422.5,-936.5 559.5,-936.5 " stroke="black"/>
<text font-family="Times,serif" font-size="14.00" text-anchor="middle" x="491" y="-921.3">(None, 3, 63, 24)</text>
</g>
<!-- 140058272284512&#45;&gt;140058272360264 -->
<g class="edge" id="edge12"><title>140058272284512-&gt;140058272360264</title>
<path d="M282,-996.366C282,-988.152 282,-978.658 282,-969.725" fill="none" stroke="black"/>
<polygon fill="black" points="285.5,-969.607 282,-959.607 278.5,-969.607 285.5,-969.607" stroke="black"/>
</g>
<!-- 140058272358584 -->
<g class="node" id="node14"><title>140058272358584</title>
<polygon fill="none" points="92,-830.5 92,-876.5 472,-876.5 472,-830.5 92,-830.5" stroke="black"/>
<text font-family="Times,serif" font-size="14.00" text-anchor="middle" x="179.5" y="-849.8">dropout_417: Dropout</text>
<polyline fill="none" points="267,-830.5 267,-876.5 " stroke="black"/>
<text font-family="Times,serif" font-size="14.00" text-anchor="middle" x="301" y="-861.3">input:</text>
<polyline fill="none" points="267,-853.5 335,-853.5 " stroke="black"/>
<text font-family="Times,serif" font-size="14.00" text-anchor="middle" x="301" y="-838.3">output:</text>
<polyline fill="none" points="335,-830.5 335,-876.5 " stroke="black"/>
<text font-family="Times,serif" font-size="14.00" text-anchor="middle" x="403.5" y="-861.3">(None, 3, 63, 24)</text>
<polyline fill="none" points="335,-853.5 472,-853.5 " stroke="black"/>
<text font-family="Times,serif" font-size="14.00" text-anchor="middle" x="403.5" y="-838.3">(None, 3, 63, 24)</text>
</g>
<!-- 140058272360264&#45;&gt;140058272358584 -->
<g class="edge" id="edge13"><title>140058272360264-&gt;140058272358584</title>
<path d="M282,-913.366C282,-905.152 282,-895.658 282,-886.725" fill="none" stroke="black"/>
<polygon fill="black" points="285.5,-886.607 282,-876.607 278.5,-886.607 285.5,-886.607" stroke="black"/>
</g>
<!-- 140058272450936 -->
<g class="node" id="node15"><title>140058272450936</title>
<polygon fill="none" points="95,-747.5 95,-793.5 469,-793.5 469,-747.5 95,-747.5" stroke="black"/>
<text font-family="Times,serif" font-size="14.00" text-anchor="middle" x="179.5" y="-766.8">conv2d_411: Conv2D</text>
<polyline fill="none" points="264,-747.5 264,-793.5 " stroke="black"/>
<text font-family="Times,serif" font-size="14.00" text-anchor="middle" x="298" y="-778.3">input:</text>
<polyline fill="none" points="264,-770.5 332,-770.5 " stroke="black"/>
<text font-family="Times,serif" font-size="14.00" text-anchor="middle" x="298" y="-755.3">output:</text>
<polyline fill="none" points="332,-747.5 332,-793.5 " stroke="black"/>
<text font-family="Times,serif" font-size="14.00" text-anchor="middle" x="400.5" y="-778.3">(None, 3, 63, 24)</text>
<polyline fill="none" points="332,-770.5 469,-770.5 " stroke="black"/>
<text font-family="Times,serif" font-size="14.00" text-anchor="middle" x="400.5" y="-755.3">(None, 3, 63, 48)</text>
</g>
<!-- 140058272358584&#45;&gt;140058272450936 -->
<g class="edge" id="edge14"><title>140058272358584-&gt;140058272450936</title>
<path d="M282,-830.366C282,-822.152 282,-812.658 282,-803.725" fill="none" stroke="black"/>
<polygon fill="black" points="285.5,-803.607 282,-793.607 278.5,-803.607 285.5,-803.607" stroke="black"/>
</g>
<!-- 140058271406568 -->
<g class="node" id="node16"><title>140058271406568</title>
<polygon fill="none" points="43.5,-664.5 43.5,-710.5 520.5,-710.5 520.5,-664.5 43.5,-664.5" stroke="black"/>
<text font-family="Times,serif" font-size="14.00" text-anchor="middle" x="179.5" y="-683.8">max_pooling2d_331: MaxPooling2D</text>
<polyline fill="none" points="315.5,-664.5 315.5,-710.5 " stroke="black"/>
<text font-family="Times,serif" font-size="14.00" text-anchor="middle" x="349.5" y="-695.3">input:</text>
<polyline fill="none" points="315.5,-687.5 383.5,-687.5 " stroke="black"/>
<text font-family="Times,serif" font-size="14.00" text-anchor="middle" x="349.5" y="-672.3">output:</text>
<polyline fill="none" points="383.5,-664.5 383.5,-710.5 " stroke="black"/>
<text font-family="Times,serif" font-size="14.00" text-anchor="middle" x="452" y="-695.3">(None, 3, 63, 48)</text>
<polyline fill="none" points="383.5,-687.5 520.5,-687.5 " stroke="black"/>
<text font-family="Times,serif" font-size="14.00" text-anchor="middle" x="452" y="-672.3">(None, 2, 32, 48)</text>
</g>
<!-- 140058272450936&#45;&gt;140058271406568 -->
<g class="edge" id="edge15"><title>140058272450936-&gt;140058271406568</title>
<path d="M282,-747.366C282,-739.152 282,-729.658 282,-720.725" fill="none" stroke="black"/>
<polygon fill="black" points="285.5,-720.607 282,-710.607 278.5,-720.607 285.5,-720.607" stroke="black"/>
</g>
<!-- 140058270967736 -->
<g class="node" id="node17"><title>140058270967736</title>
<polygon fill="none" points="92,-581.5 92,-627.5 472,-627.5 472,-581.5 92,-581.5" stroke="black"/>
<text font-family="Times,serif" font-size="14.00" text-anchor="middle" x="179.5" y="-600.8">dropout_418: Dropout</text>
<polyline fill="none" points="267,-581.5 267,-627.5 " stroke="black"/>
<text font-family="Times,serif" font-size="14.00" text-anchor="middle" x="301" y="-612.3">input:</text>
<polyline fill="none" points="267,-604.5 335,-604.5 " stroke="black"/>
<text font-family="Times,serif" font-size="14.00" text-anchor="middle" x="301" y="-589.3">output:</text>
<polyline fill="none" points="335,-581.5 335,-627.5 " stroke="black"/>
<text font-family="Times,serif" font-size="14.00" text-anchor="middle" x="403.5" y="-612.3">(None, 2, 32, 48)</text>
<polyline fill="none" points="335,-604.5 472,-604.5 " stroke="black"/>
<text font-family="Times,serif" font-size="14.00" text-anchor="middle" x="403.5" y="-589.3">(None, 2, 32, 48)</text>
</g>
<!-- 140058271406568&#45;&gt;140058270967736 -->
<g class="edge" id="edge16"><title>140058271406568-&gt;140058270967736</title>
<path d="M282,-664.366C282,-656.152 282,-646.658 282,-637.725" fill="none" stroke="black"/>
<polygon fill="black" points="285.5,-637.607 282,-627.607 278.5,-637.607 285.5,-637.607" stroke="black"/>
</g>
<!-- 140058270969360 -->
<g class="node" id="node18"><title>140058270969360</title>
<polygon fill="none" points="95,-498.5 95,-544.5 469,-544.5 469,-498.5 95,-498.5" stroke="black"/>
<text font-family="Times,serif" font-size="14.00" text-anchor="middle" x="179.5" y="-517.8">conv2d_412: Conv2D</text>
<polyline fill="none" points="264,-498.5 264,-544.5 " stroke="black"/>
<text font-family="Times,serif" font-size="14.00" text-anchor="middle" x="298" y="-529.3">input:</text>
<polyline fill="none" points="264,-521.5 332,-521.5 " stroke="black"/>
<text font-family="Times,serif" font-size="14.00" text-anchor="middle" x="298" y="-506.3">output:</text>
<polyline fill="none" points="332,-498.5 332,-544.5 " stroke="black"/>
<text font-family="Times,serif" font-size="14.00" text-anchor="middle" x="400.5" y="-529.3">(None, 2, 32, 48)</text>
<polyline fill="none" points="332,-521.5 469,-521.5 " stroke="black"/>
<text font-family="Times,serif" font-size="14.00" text-anchor="middle" x="400.5" y="-506.3">(None, 2, 32, 96)</text>
</g>
<!-- 140058270967736&#45;&gt;140058270969360 -->
<g class="edge" id="edge17"><title>140058270967736-&gt;140058270969360</title>
<path d="M282,-581.366C282,-573.152 282,-563.658 282,-554.725" fill="none" stroke="black"/>
<polygon fill="black" points="285.5,-554.607 282,-544.607 278.5,-554.607 285.5,-554.607" stroke="black"/>
</g>
<!-- 140058270969696 -->
<g class="node" id="node19"><title>140058270969696</title>
<polygon fill="none" points="104.5,-415.5 104.5,-461.5 459.5,-461.5 459.5,-415.5 104.5,-415.5" stroke="black"/>
<text font-family="Times,serif" font-size="14.00" text-anchor="middle" x="179.5" y="-434.8">flatten_83: Flatten</text>
<polyline fill="none" points="254.5,-415.5 254.5,-461.5 " stroke="black"/>
<text font-family="Times,serif" font-size="14.00" text-anchor="middle" x="288.5" y="-446.3">input:</text>
<polyline fill="none" points="254.5,-438.5 322.5,-438.5 " stroke="black"/>
<text font-family="Times,serif" font-size="14.00" text-anchor="middle" x="288.5" y="-423.3">output:</text>
<polyline fill="none" points="322.5,-415.5 322.5,-461.5 " stroke="black"/>
<text font-family="Times,serif" font-size="14.00" text-anchor="middle" x="391" y="-446.3">(None, 2, 32, 96)</text>
<polyline fill="none" points="322.5,-438.5 459.5,-438.5 " stroke="black"/>
<text font-family="Times,serif" font-size="14.00" text-anchor="middle" x="391" y="-423.3">(None, 6144)</text>
</g>
<!-- 140058270969360&#45;&gt;140058270969696 -->
<g class="edge" id="edge18"><title>140058270969360-&gt;140058270969696</title>
<path d="M282,-498.366C282,-490.152 282,-480.658 282,-471.725" fill="none" stroke="black"/>
<polygon fill="black" points="285.5,-471.607 282,-461.607 278.5,-471.607 285.5,-471.607" stroke="black"/>
</g>
<!-- 140058271049768 -->
<g class="node" id="node20"><title>140058271049768</title>
<polygon fill="none" points="18,-332.5 18,-378.5 546,-378.5 546,-332.5 18,-332.5" stroke="black"/>
<text font-family="Times,serif" font-size="14.00" text-anchor="middle" x="193" y="-351.8">batch_normalization_507: BatchNormalization</text>
<polyline fill="none" points="368,-332.5 368,-378.5 " stroke="black"/>
<text font-family="Times,serif" font-size="14.00" text-anchor="middle" x="402" y="-363.3">input:</text>
<polyline fill="none" points="368,-355.5 436,-355.5 " stroke="black"/>
<text font-family="Times,serif" font-size="14.00" text-anchor="middle" x="402" y="-340.3">output:</text>
<polyline fill="none" points="436,-332.5 436,-378.5 " stroke="black"/>
<text font-family="Times,serif" font-size="14.00" text-anchor="middle" x="491" y="-363.3">(None, 6144)</text>
<polyline fill="none" points="436,-355.5 546,-355.5 " stroke="black"/>
<text font-family="Times,serif" font-size="14.00" text-anchor="middle" x="491" y="-340.3">(None, 6144)</text>
</g>
<!-- 140058270969696&#45;&gt;140058271049768 -->
<g class="edge" id="edge19"><title>140058270969696-&gt;140058271049768</title>
<path d="M282,-415.366C282,-407.152 282,-397.658 282,-388.725" fill="none" stroke="black"/>
<polygon fill="black" points="285.5,-388.607 282,-378.607 278.5,-388.607 285.5,-388.607" stroke="black"/>
</g>
<!-- 140058270372976 -->
<g class="node" id="node21"><title>140058270372976</title>
<polygon fill="none" points="120,-249.5 120,-295.5 444,-295.5 444,-249.5 120,-249.5" stroke="black"/>
<text font-family="Times,serif" font-size="14.00" text-anchor="middle" x="193" y="-268.8">dense_165: Dense</text>
<polyline fill="none" points="266,-249.5 266,-295.5 " stroke="black"/>
<text font-family="Times,serif" font-size="14.00" text-anchor="middle" x="300" y="-280.3">input:</text>
<polyline fill="none" points="266,-272.5 334,-272.5 " stroke="black"/>
<text font-family="Times,serif" font-size="14.00" text-anchor="middle" x="300" y="-257.3">output:</text>
<polyline fill="none" points="334,-249.5 334,-295.5 " stroke="black"/>
<text font-family="Times,serif" font-size="14.00" text-anchor="middle" x="389" y="-280.3">(None, 6144)</text>
<polyline fill="none" points="334,-272.5 444,-272.5 " stroke="black"/>
<text font-family="Times,serif" font-size="14.00" text-anchor="middle" x="389" y="-257.3">(None, 10)</text>
</g>
<!-- 140058271049768&#45;&gt;140058270372976 -->
<g class="edge" id="edge20"><title>140058271049768-&gt;140058270372976</title>
<path d="M282,-332.366C282,-324.152 282,-314.658 282,-305.725" fill="none" stroke="black"/>
<polygon fill="black" points="285.5,-305.607 282,-295.607 278.5,-305.607 285.5,-305.607" stroke="black"/>
</g>
<!-- 140058270466176 -->
<g class="node" id="node22"><title>140058270466176</title>
<polygon fill="none" points="114.5,-166.5 114.5,-212.5 449.5,-212.5 449.5,-166.5 114.5,-166.5" stroke="black"/>
<text font-family="Times,serif" font-size="14.00" text-anchor="middle" x="202" y="-185.8">dropout_419: Dropout</text>
<polyline fill="none" points="289.5,-166.5 289.5,-212.5 " stroke="black"/>
<text font-family="Times,serif" font-size="14.00" text-anchor="middle" x="323.5" y="-197.3">input:</text>
<polyline fill="none" points="289.5,-189.5 357.5,-189.5 " stroke="black"/>
<text font-family="Times,serif" font-size="14.00" text-anchor="middle" x="323.5" y="-174.3">output:</text>
<polyline fill="none" points="357.5,-166.5 357.5,-212.5 " stroke="black"/>
<text font-family="Times,serif" font-size="14.00" text-anchor="middle" x="403.5" y="-197.3">(None, 10)</text>
<polyline fill="none" points="357.5,-189.5 449.5,-189.5 " stroke="black"/>
<text font-family="Times,serif" font-size="14.00" text-anchor="middle" x="403.5" y="-174.3">(None, 10)</text>
</g>
<!-- 140058270372976&#45;&gt;140058270466176 -->
<g class="edge" id="edge21"><title>140058270372976-&gt;140058270466176</title>
<path d="M282,-249.366C282,-241.152 282,-231.658 282,-222.725" fill="none" stroke="black"/>
<polygon fill="black" points="285.5,-222.607 282,-212.607 278.5,-222.607 285.5,-222.607" stroke="black"/>
</g>
<!-- 140058270264288 -->
<g class="node" id="node23"><title>140058270264288</title>
<polygon fill="none" points="27,-83.5 27,-129.5 537,-129.5 537,-83.5 27,-83.5" stroke="black"/>
<text font-family="Times,serif" font-size="14.00" text-anchor="middle" x="202" y="-102.8">batch_normalization_508: BatchNormalization</text>
<polyline fill="none" points="377,-83.5 377,-129.5 " stroke="black"/>
<text font-family="Times,serif" font-size="14.00" text-anchor="middle" x="411" y="-114.3">input:</text>
<polyline fill="none" points="377,-106.5 445,-106.5 " stroke="black"/>
<text font-family="Times,serif" font-size="14.00" text-anchor="middle" x="411" y="-91.3">output:</text>
<polyline fill="none" points="445,-83.5 445,-129.5 " stroke="black"/>
<text font-family="Times,serif" font-size="14.00" text-anchor="middle" x="491" y="-114.3">(None, 10)</text>
<polyline fill="none" points="445,-106.5 537,-106.5 " stroke="black"/>
<text font-family="Times,serif" font-size="14.00" text-anchor="middle" x="491" y="-91.3">(None, 10)</text>
</g>
<!-- 140058270466176&#45;&gt;140058270264288 -->
<g class="edge" id="edge22"><title>140058270466176-&gt;140058270264288</title>
<path d="M282,-166.366C282,-158.152 282,-148.658 282,-139.725" fill="none" stroke="black"/>
<polygon fill="black" points="285.5,-139.607 282,-129.607 278.5,-139.607 285.5,-139.607" stroke="black"/>
</g>
<!-- 140058269884200 -->
<g class="node" id="node24"><title>140058269884200</title>
<polygon fill="none" points="129,-0.5 129,-46.5 435,-46.5 435,-0.5 129,-0.5" stroke="black"/>
<text font-family="Times,serif" font-size="14.00" text-anchor="middle" x="202" y="-19.8">dense_166: Dense</text>
<polyline fill="none" points="275,-0.5 275,-46.5 " stroke="black"/>
<text font-family="Times,serif" font-size="14.00" text-anchor="middle" x="309" y="-31.3">input:</text>
<polyline fill="none" points="275,-23.5 343,-23.5 " stroke="black"/>
<text font-family="Times,serif" font-size="14.00" text-anchor="middle" x="309" y="-8.3">output:</text>
<polyline fill="none" points="343,-0.5 343,-46.5 " stroke="black"/>
<text font-family="Times,serif" font-size="14.00" text-anchor="middle" x="389" y="-31.3">(None, 10)</text>
<polyline fill="none" points="343,-23.5 435,-23.5 " stroke="black"/>
<text font-family="Times,serif" font-size="14.00" text-anchor="middle" x="389" y="-8.3">(None, 2)</text>
</g>
<!-- 140058270264288&#45;&gt;140058269884200 -->
<g class="edge" id="edge23"><title>140058270264288-&gt;140058269884200</title>
<path d="M282,-83.3664C282,-75.1516 282,-65.6579 282,-56.7252" fill="none" stroke="black"/>
<polygon fill="black" points="285.5,-56.6068 282,-46.6068 278.5,-56.6069 285.5,-56.6068" stroke="black"/>
</g>
</g>
</svg>