<svg height="2545pt" viewBox="0.00 0.00 545.00 2545.00" width="545pt" xmlns="http://www.w3.org/2000/svg" xmlns:xlink="http://www.w3.org/1999/xlink">
<g class="graph" id="graph0" transform="scale(1 1) rotate(0) translate(4 2541)">
<title>G</title>
<polygon fill="white" points="-4,4 -4,-2541 541,-2541 541,4 -4,4" stroke="none"/>
<!-- 139972120856168 -->
<g class="node" id="node1"><title>139972120856168</title>
<polygon fill="none" points="90.5,-2490.5 90.5,-2536.5 446.5,-2536.5 446.5,-2490.5 90.5,-2490.5" stroke="black"/>
<text font-family="Times,serif" font-size="14.00" text-anchor="middle" x="170.5" y="-2509.8">input_6: InputLayer</text>
<polyline fill="none" points="250.5,-2490.5 250.5,-2536.5 " stroke="black"/>
<text font-family="Times,serif" font-size="14.00" text-anchor="middle" x="284.5" y="-2521.3">input:</text>
<polyline fill="none" points="250.5,-2513.5 318.5,-2513.5 " stroke="black"/>
<text font-family="Times,serif" font-size="14.00" text-anchor="middle" x="284.5" y="-2498.3">output:</text>
<polyline fill="none" points="318.5,-2490.5 318.5,-2536.5 " stroke="black"/>
<text font-family="Times,serif" font-size="14.00" text-anchor="middle" x="382.5" y="-2521.3">(None, 500, 60)</text>
<polyline fill="none" points="318.5,-2513.5 446.5,-2513.5 " stroke="black"/>
<text font-family="Times,serif" font-size="14.00" text-anchor="middle" x="382.5" y="-2498.3">(None, 500, 60)</text>
</g>
<!-- 139972120854992 -->
<g class="node" id="node2"><title>139972120854992</title>
<polygon fill="none" points="0,-2407.5 0,-2453.5 537,-2453.5 537,-2407.5 0,-2407.5" stroke="black"/>
<text font-family="Times,serif" font-size="14.00" text-anchor="middle" x="170.5" y="-2426.8">batch_normalization_15: BatchNormalization</text>
<polyline fill="none" points="341,-2407.5 341,-2453.5 " stroke="black"/>
<text font-family="Times,serif" font-size="14.00" text-anchor="middle" x="375" y="-2438.3">input:</text>
<polyline fill="none" points="341,-2430.5 409,-2430.5 " stroke="black"/>
<text font-family="Times,serif" font-size="14.00" text-anchor="middle" x="375" y="-2415.3">output:</text>
<polyline fill="none" points="409,-2407.5 409,-2453.5 " stroke="black"/>
<text font-family="Times,serif" font-size="14.00" text-anchor="middle" x="473" y="-2438.3">(None, 500, 60)</text>
<polyline fill="none" points="409,-2430.5 537,-2430.5 " stroke="black"/>
<text font-family="Times,serif" font-size="14.00" text-anchor="middle" x="473" y="-2415.3">(None, 500, 60)</text>
</g>
<!-- 139972120856168&#45;&gt;139972120854992 -->
<g class="edge" id="edge1"><title>139972120856168-&gt;139972120854992</title>
<path d="M268.5,-2490.37C268.5,-2482.15 268.5,-2472.66 268.5,-2463.73" fill="none" stroke="black"/>
<polygon fill="black" points="272,-2463.61 268.5,-2453.61 265,-2463.61 272,-2463.61" stroke="black"/>
</g>
<!-- 139972121265208 -->
<g class="node" id="node3"><title>139972121265208</title>
<polygon fill="none" points="90.5,-2324.5 90.5,-2370.5 446.5,-2370.5 446.5,-2324.5 90.5,-2324.5" stroke="black"/>
<text font-family="Times,serif" font-size="14.00" text-anchor="middle" x="170.5" y="-2343.8">conv1d_11: Conv1D</text>
<polyline fill="none" points="250.5,-2324.5 250.5,-2370.5 " stroke="black"/>
<text font-family="Times,serif" font-size="14.00" text-anchor="middle" x="284.5" y="-2355.3">input:</text>
<polyline fill="none" points="250.5,-2347.5 318.5,-2347.5 " stroke="black"/>
<text font-family="Times,serif" font-size="14.00" text-anchor="middle" x="284.5" y="-2332.3">output:</text>
<polyline fill="none" points="318.5,-2324.5 318.5,-2370.5 " stroke="black"/>
<text font-family="Times,serif" font-size="14.00" text-anchor="middle" x="382.5" y="-2355.3">(None, 500, 60)</text>
<polyline fill="none" points="318.5,-2347.5 446.5,-2347.5 " stroke="black"/>
<text font-family="Times,serif" font-size="14.00" text-anchor="middle" x="382.5" y="-2332.3">(None, 500, 10)</text>
</g>
<!-- 139972120854992&#45;&gt;139972121265208 -->
<g class="edge" id="edge2"><title>139972120854992-&gt;139972121265208</title>
<path d="M268.5,-2407.37C268.5,-2399.15 268.5,-2389.66 268.5,-2380.73" fill="none" stroke="black"/>
<polygon fill="black" points="272,-2380.61 268.5,-2370.61 265,-2380.61 272,-2380.61" stroke="black"/>
</g>
<!-- 139972172735376 -->
<g class="node" id="node4"><title>139972172735376</title>
<polygon fill="none" points="118.5,-2241.5 118.5,-2287.5 418.5,-2287.5 418.5,-2241.5 118.5,-2241.5" stroke="black"/>
<text font-family="Times,serif" font-size="14.00" text-anchor="middle" x="170.5" y="-2260.8">elu_11: ELU</text>
<polyline fill="none" points="222.5,-2241.5 222.5,-2287.5 " stroke="black"/>
<text font-family="Times,serif" font-size="14.00" text-anchor="middle" x="256.5" y="-2272.3">input:</text>
<polyline fill="none" points="222.5,-2264.5 290.5,-2264.5 " stroke="black"/>
<text font-family="Times,serif" font-size="14.00" text-anchor="middle" x="256.5" y="-2249.3">output:</text>
<polyline fill="none" points="290.5,-2241.5 290.5,-2287.5 " stroke="black"/>
<text font-family="Times,serif" font-size="14.00" text-anchor="middle" x="354.5" y="-2272.3">(None, 500, 10)</text>
<polyline fill="none" points="290.5,-2264.5 418.5,-2264.5 " stroke="black"/>
<text font-family="Times,serif" font-size="14.00" text-anchor="middle" x="354.5" y="-2249.3">(None, 500, 10)</text>
</g>
<!-- 139972121265208&#45;&gt;139972172735376 -->
<g class="edge" id="edge3"><title>139972121265208-&gt;139972172735376</title>
<path d="M268.5,-2324.37C268.5,-2316.15 268.5,-2306.66 268.5,-2297.73" fill="none" stroke="black"/>
<polygon fill="black" points="272,-2297.61 268.5,-2287.61 265,-2297.61 272,-2297.61" stroke="black"/>
</g>
<!-- 139972172120136 -->
<g class="node" id="node5"><title>139972172120136</title>
<polygon fill="none" points="43.5,-2158.5 43.5,-2204.5 493.5,-2204.5 493.5,-2158.5 43.5,-2158.5" stroke="black"/>
<text font-family="Times,serif" font-size="14.00" text-anchor="middle" x="170.5" y="-2177.8">max_pooling1d_9: MaxPooling1D</text>
<polyline fill="none" points="297.5,-2158.5 297.5,-2204.5 " stroke="black"/>
<text font-family="Times,serif" font-size="14.00" text-anchor="middle" x="331.5" y="-2189.3">input:</text>
<polyline fill="none" points="297.5,-2181.5 365.5,-2181.5 " stroke="black"/>
<text font-family="Times,serif" font-size="14.00" text-anchor="middle" x="331.5" y="-2166.3">output:</text>
<polyline fill="none" points="365.5,-2158.5 365.5,-2204.5 " stroke="black"/>
<text font-family="Times,serif" font-size="14.00" text-anchor="middle" x="429.5" y="-2189.3">(None, 500, 10)</text>
<polyline fill="none" points="365.5,-2181.5 493.5,-2181.5 " stroke="black"/>
<text font-family="Times,serif" font-size="14.00" text-anchor="middle" x="429.5" y="-2166.3">(None, 100, 10)</text>
</g>
<!-- 139972172735376&#45;&gt;139972172120136 -->
<g class="edge" id="edge4"><title>139972172735376-&gt;139972172120136</title>
<path d="M268.5,-2241.37C268.5,-2233.15 268.5,-2223.66 268.5,-2214.73" fill="none" stroke="black"/>
<polygon fill="black" points="272,-2214.61 268.5,-2204.61 265,-2214.61 272,-2214.61" stroke="black"/>
</g>
<!-- 139972171971384 -->
<g class="node" id="node6"><title>139972171971384</title>
<polygon fill="none" points="0,-2075.5 0,-2121.5 537,-2121.5 537,-2075.5 0,-2075.5" stroke="black"/>
<text font-family="Times,serif" font-size="14.00" text-anchor="middle" x="170.5" y="-2094.8">batch_normalization_16: BatchNormalization</text>
<polyline fill="none" points="341,-2075.5 341,-2121.5 " stroke="black"/>
<text font-family="Times,serif" font-size="14.00" text-anchor="middle" x="375" y="-2106.3">input:</text>
<polyline fill="none" points="341,-2098.5 409,-2098.5 " stroke="black"/>
<text font-family="Times,serif" font-size="14.00" text-anchor="middle" x="375" y="-2083.3">output:</text>
<polyline fill="none" points="409,-2075.5 409,-2121.5 " stroke="black"/>
<text font-family="Times,serif" font-size="14.00" text-anchor="middle" x="473" y="-2106.3">(None, 100, 10)</text>
<polyline fill="none" points="409,-2098.5 537,-2098.5 " stroke="black"/>
<text font-family="Times,serif" font-size="14.00" text-anchor="middle" x="473" y="-2083.3">(None, 100, 10)</text>
</g>
<!-- 139972172120136&#45;&gt;139972171971384 -->
<g class="edge" id="edge5"><title>139972172120136-&gt;139972171971384</title>
<path d="M268.5,-2158.37C268.5,-2150.15 268.5,-2140.66 268.5,-2131.73" fill="none" stroke="black"/>
<polygon fill="black" points="272,-2131.61 268.5,-2121.61 265,-2131.61 272,-2131.61" stroke="black"/>
</g>
<!-- 139976848946120 -->
<g class="node" id="node7"><title>139976848946120</title>
<polygon fill="none" points="87.5,-1992.5 87.5,-2038.5 449.5,-2038.5 449.5,-1992.5 87.5,-1992.5" stroke="black"/>
<text font-family="Times,serif" font-size="14.00" text-anchor="middle" x="170.5" y="-2011.8">dropout_13: Dropout</text>
<polyline fill="none" points="253.5,-1992.5 253.5,-2038.5 " stroke="black"/>
<text font-family="Times,serif" font-size="14.00" text-anchor="middle" x="287.5" y="-2023.3">input:</text>
<polyline fill="none" points="253.5,-2015.5 321.5,-2015.5 " stroke="black"/>
<text font-family="Times,serif" font-size="14.00" text-anchor="middle" x="287.5" y="-2000.3">output:</text>
<polyline fill="none" points="321.5,-1992.5 321.5,-2038.5 " stroke="black"/>
<text font-family="Times,serif" font-size="14.00" text-anchor="middle" x="385.5" y="-2023.3">(None, 100, 10)</text>
<polyline fill="none" points="321.5,-2015.5 449.5,-2015.5 " stroke="black"/>
<text font-family="Times,serif" font-size="14.00" text-anchor="middle" x="385.5" y="-2000.3">(None, 100, 10)</text>
</g>
<!-- 139972171971384&#45;&gt;139976848946120 -->
<g class="edge" id="edge6"><title>139972171971384-&gt;139976848946120</title>
<path d="M268.5,-2075.37C268.5,-2067.15 268.5,-2057.66 268.5,-2048.73" fill="none" stroke="black"/>
<polygon fill="black" points="272,-2048.61 268.5,-2038.61 265,-2048.61 272,-2048.61" stroke="black"/>
</g>
<!-- 139976849043072 -->
<g class="node" id="node8"><title>139976849043072</title>
<polygon fill="none" points="90.5,-1909.5 90.5,-1955.5 446.5,-1955.5 446.5,-1909.5 90.5,-1909.5" stroke="black"/>
<text font-family="Times,serif" font-size="14.00" text-anchor="middle" x="170.5" y="-1928.8">conv1d_12: Conv1D</text>
<polyline fill="none" points="250.5,-1909.5 250.5,-1955.5 " stroke="black"/>
<text font-family="Times,serif" font-size="14.00" text-anchor="middle" x="284.5" y="-1940.3">input:</text>
<polyline fill="none" points="250.5,-1932.5 318.5,-1932.5 " stroke="black"/>
<text font-family="Times,serif" font-size="14.00" text-anchor="middle" x="284.5" y="-1917.3">output:</text>
<polyline fill="none" points="318.5,-1909.5 318.5,-1955.5 " stroke="black"/>
<text font-family="Times,serif" font-size="14.00" text-anchor="middle" x="382.5" y="-1940.3">(None, 100, 10)</text>
<polyline fill="none" points="318.5,-1932.5 446.5,-1932.5 " stroke="black"/>
<text font-family="Times,serif" font-size="14.00" text-anchor="middle" x="382.5" y="-1917.3">(None, 100, 20)</text>
</g>
<!-- 139976848946120&#45;&gt;139976849043072 -->
<g class="edge" id="edge7"><title>139976848946120-&gt;139976849043072</title>
<path d="M268.5,-1992.37C268.5,-1984.15 268.5,-1974.66 268.5,-1965.73" fill="none" stroke="black"/>
<polygon fill="black" points="272,-1965.61 268.5,-1955.61 265,-1965.61 272,-1965.61" stroke="black"/>
</g>
<!-- 139976848512056 -->
<g class="node" id="node9"><title>139976848512056</title>
<polygon fill="none" points="118.5,-1826.5 118.5,-1872.5 418.5,-1872.5 418.5,-1826.5 118.5,-1826.5" stroke="black"/>
<text font-family="Times,serif" font-size="14.00" text-anchor="middle" x="170.5" y="-1845.8">elu_12: ELU</text>
<polyline fill="none" points="222.5,-1826.5 222.5,-1872.5 " stroke="black"/>
<text font-family="Times,serif" font-size="14.00" text-anchor="middle" x="256.5" y="-1857.3">input:</text>
<polyline fill="none" points="222.5,-1849.5 290.5,-1849.5 " stroke="black"/>
<text font-family="Times,serif" font-size="14.00" text-anchor="middle" x="256.5" y="-1834.3">output:</text>
<polyline fill="none" points="290.5,-1826.5 290.5,-1872.5 " stroke="black"/>
<text font-family="Times,serif" font-size="14.00" text-anchor="middle" x="354.5" y="-1857.3">(None, 100, 20)</text>
<polyline fill="none" points="290.5,-1849.5 418.5,-1849.5 " stroke="black"/>
<text font-family="Times,serif" font-size="14.00" text-anchor="middle" x="354.5" y="-1834.3">(None, 100, 20)</text>
</g>
<!-- 139976849043072&#45;&gt;139976848512056 -->
<g class="edge" id="edge8"><title>139976849043072-&gt;139976848512056</title>
<path d="M268.5,-1909.37C268.5,-1901.15 268.5,-1891.66 268.5,-1882.73" fill="none" stroke="black"/>
<polygon fill="black" points="272,-1882.61 268.5,-1872.61 265,-1882.61 272,-1882.61" stroke="black"/>
</g>
<!-- 139976848645816 -->
<g class="node" id="node10"><title>139976848645816</title>
<polygon fill="none" points="39,-1743.5 39,-1789.5 498,-1789.5 498,-1743.5 39,-1743.5" stroke="black"/>
<text font-family="Times,serif" font-size="14.00" text-anchor="middle" x="170.5" y="-1762.8">max_pooling1d_10: MaxPooling1D</text>
<polyline fill="none" points="302,-1743.5 302,-1789.5 " stroke="black"/>
<text font-family="Times,serif" font-size="14.00" text-anchor="middle" x="336" y="-1774.3">input:</text>
<polyline fill="none" points="302,-1766.5 370,-1766.5 " stroke="black"/>
<text font-family="Times,serif" font-size="14.00" text-anchor="middle" x="336" y="-1751.3">output:</text>
<polyline fill="none" points="370,-1743.5 370,-1789.5 " stroke="black"/>
<text font-family="Times,serif" font-size="14.00" text-anchor="middle" x="434" y="-1774.3">(None, 100, 20)</text>
<polyline fill="none" points="370,-1766.5 498,-1766.5 " stroke="black"/>
<text font-family="Times,serif" font-size="14.00" text-anchor="middle" x="434" y="-1751.3">(None, 50, 20)</text>
</g>
<!-- 139976848512056&#45;&gt;139976848645816 -->
<g class="edge" id="edge9"><title>139976848512056-&gt;139976848645816</title>
<path d="M268.5,-1826.37C268.5,-1818.15 268.5,-1808.66 268.5,-1799.73" fill="none" stroke="black"/>
<polygon fill="black" points="272,-1799.61 268.5,-1789.61 265,-1799.61 272,-1799.61" stroke="black"/>
</g>
<!-- 139976848074848 -->
<g class="node" id="node11"><title>139976848074848</title>
<polygon fill="none" points="4.5,-1660.5 4.5,-1706.5 532.5,-1706.5 532.5,-1660.5 4.5,-1660.5" stroke="black"/>
<text font-family="Times,serif" font-size="14.00" text-anchor="middle" x="175" y="-1679.8">batch_normalization_17: BatchNormalization</text>
<polyline fill="none" points="345.5,-1660.5 345.5,-1706.5 " stroke="black"/>
<text font-family="Times,serif" font-size="14.00" text-anchor="middle" x="379.5" y="-1691.3">input:</text>
<polyline fill="none" points="345.5,-1683.5 413.5,-1683.5 " stroke="black"/>
<text font-family="Times,serif" font-size="14.00" text-anchor="middle" x="379.5" y="-1668.3">output:</text>
<polyline fill="none" points="413.5,-1660.5 413.5,-1706.5 " stroke="black"/>
<text font-family="Times,serif" font-size="14.00" text-anchor="middle" x="473" y="-1691.3">(None, 50, 20)</text>
<polyline fill="none" points="413.5,-1683.5 532.5,-1683.5 " stroke="black"/>
<text font-family="Times,serif" font-size="14.00" text-anchor="middle" x="473" y="-1668.3">(None, 50, 20)</text>
</g>
<!-- 139976848645816&#45;&gt;139976848074848 -->
<g class="edge" id="edge10"><title>139976848645816-&gt;139976848074848</title>
<path d="M268.5,-1743.37C268.5,-1735.15 268.5,-1725.66 268.5,-1716.73" fill="none" stroke="black"/>
<polygon fill="black" points="272,-1716.61 268.5,-1706.61 265,-1716.61 272,-1716.61" stroke="black"/>
</g>
<!-- 139976847719224 -->
<g class="node" id="node12"><title>139976847719224</title>
<polygon fill="none" points="92,-1577.5 92,-1623.5 445,-1623.5 445,-1577.5 92,-1577.5" stroke="black"/>
<text font-family="Times,serif" font-size="14.00" text-anchor="middle" x="175" y="-1596.8">dropout_14: Dropout</text>
<polyline fill="none" points="258,-1577.5 258,-1623.5 " stroke="black"/>
<text font-family="Times,serif" font-size="14.00" text-anchor="middle" x="292" y="-1608.3">input:</text>
<polyline fill="none" points="258,-1600.5 326,-1600.5 " stroke="black"/>
<text font-family="Times,serif" font-size="14.00" text-anchor="middle" x="292" y="-1585.3">output:</text>
<polyline fill="none" points="326,-1577.5 326,-1623.5 " stroke="black"/>
<text font-family="Times,serif" font-size="14.00" text-anchor="middle" x="385.5" y="-1608.3">(None, 50, 20)</text>
<polyline fill="none" points="326,-1600.5 445,-1600.5 " stroke="black"/>
<text font-family="Times,serif" font-size="14.00" text-anchor="middle" x="385.5" y="-1585.3">(None, 50, 20)</text>
</g>
<!-- 139976848074848&#45;&gt;139976847719224 -->
<g class="edge" id="edge11"><title>139976848074848-&gt;139976847719224</title>
<path d="M268.5,-1660.37C268.5,-1652.15 268.5,-1642.66 268.5,-1633.73" fill="none" stroke="black"/>
<polygon fill="black" points="272,-1633.61 268.5,-1623.61 265,-1633.61 272,-1633.61" stroke="black"/>
</g>
<!-- 139976847819440 -->
<g class="node" id="node13"><title>139976847819440</title>
<polygon fill="none" points="95,-1494.5 95,-1540.5 442,-1540.5 442,-1494.5 95,-1494.5" stroke="black"/>
<text font-family="Times,serif" font-size="14.00" text-anchor="middle" x="175" y="-1513.8">conv1d_13: Conv1D</text>
<polyline fill="none" points="255,-1494.5 255,-1540.5 " stroke="black"/>
<text font-family="Times,serif" font-size="14.00" text-anchor="middle" x="289" y="-1525.3">input:</text>
<polyline fill="none" points="255,-1517.5 323,-1517.5 " stroke="black"/>
<text font-family="Times,serif" font-size="14.00" text-anchor="middle" x="289" y="-1502.3">output:</text>
<polyline fill="none" points="323,-1494.5 323,-1540.5 " stroke="black"/>
<text font-family="Times,serif" font-size="14.00" text-anchor="middle" x="382.5" y="-1525.3">(None, 50, 20)</text>
<polyline fill="none" points="323,-1517.5 442,-1517.5 " stroke="black"/>
<text font-family="Times,serif" font-size="14.00" text-anchor="middle" x="382.5" y="-1502.3">(None, 50, 40)</text>
</g>
<!-- 139976847719224&#45;&gt;139976847819440 -->
<g class="edge" id="edge12"><title>139976847719224-&gt;139976847819440</title>
<path d="M268.5,-1577.37C268.5,-1569.15 268.5,-1559.66 268.5,-1550.73" fill="none" stroke="black"/>
<polygon fill="black" points="272,-1550.61 268.5,-1540.61 265,-1550.61 272,-1550.61" stroke="black"/>
</g>
<!-- 139976847190056 -->
<g class="node" id="node14"><title>139976847190056</title>
<polygon fill="none" points="123,-1411.5 123,-1457.5 414,-1457.5 414,-1411.5 123,-1411.5" stroke="black"/>
<text font-family="Times,serif" font-size="14.00" text-anchor="middle" x="175" y="-1430.8">elu_13: ELU</text>
<polyline fill="none" points="227,-1411.5 227,-1457.5 " stroke="black"/>
<text font-family="Times,serif" font-size="14.00" text-anchor="middle" x="261" y="-1442.3">input:</text>
<polyline fill="none" points="227,-1434.5 295,-1434.5 " stroke="black"/>
<text font-family="Times,serif" font-size="14.00" text-anchor="middle" x="261" y="-1419.3">output:</text>
<polyline fill="none" points="295,-1411.5 295,-1457.5 " stroke="black"/>
<text font-family="Times,serif" font-size="14.00" text-anchor="middle" x="354.5" y="-1442.3">(None, 50, 40)</text>
<polyline fill="none" points="295,-1434.5 414,-1434.5 " stroke="black"/>
<text font-family="Times,serif" font-size="14.00" text-anchor="middle" x="354.5" y="-1419.3">(None, 50, 40)</text>
</g>
<!-- 139976847819440&#45;&gt;139976847190056 -->
<g class="edge" id="edge13"><title>139976847819440-&gt;139976847190056</title>
<path d="M268.5,-1494.37C268.5,-1486.15 268.5,-1476.66 268.5,-1467.73" fill="none" stroke="black"/>
<polygon fill="black" points="272,-1467.61 268.5,-1457.61 265,-1467.61 272,-1467.61" stroke="black"/>
</g>
<!-- 139976846936496 -->
<g class="node" id="node15"><title>139976846936496</title>
<polygon fill="none" points="43.5,-1328.5 43.5,-1374.5 493.5,-1374.5 493.5,-1328.5 43.5,-1328.5" stroke="black"/>
<text font-family="Times,serif" font-size="14.00" text-anchor="middle" x="175" y="-1347.8">max_pooling1d_11: MaxPooling1D</text>
<polyline fill="none" points="306.5,-1328.5 306.5,-1374.5 " stroke="black"/>
<text font-family="Times,serif" font-size="14.00" text-anchor="middle" x="340.5" y="-1359.3">input:</text>
<polyline fill="none" points="306.5,-1351.5 374.5,-1351.5 " stroke="black"/>
<text font-family="Times,serif" font-size="14.00" text-anchor="middle" x="340.5" y="-1336.3">output:</text>
<polyline fill="none" points="374.5,-1328.5 374.5,-1374.5 " stroke="black"/>
<text font-family="Times,serif" font-size="14.00" text-anchor="middle" x="434" y="-1359.3">(None, 50, 40)</text>
<polyline fill="none" points="374.5,-1351.5 493.5,-1351.5 " stroke="black"/>
<text font-family="Times,serif" font-size="14.00" text-anchor="middle" x="434" y="-1336.3">(None, 10, 40)</text>
</g>
<!-- 139976847190056&#45;&gt;139976846936496 -->
<g class="edge" id="edge14"><title>139976847190056-&gt;139976846936496</title>
<path d="M268.5,-1411.37C268.5,-1403.15 268.5,-1393.66 268.5,-1384.73" fill="none" stroke="black"/>
<polygon fill="black" points="272,-1384.61 268.5,-1374.61 265,-1384.61 272,-1384.61" stroke="black"/>
</g>
<!-- 139976846744656 -->
<g class="node" id="node16"><title>139976846744656</title>
<polygon fill="none" points="4.5,-1245.5 4.5,-1291.5 532.5,-1291.5 532.5,-1245.5 4.5,-1245.5" stroke="black"/>
<text font-family="Times,serif" font-size="14.00" text-anchor="middle" x="175" y="-1264.8">batch_normalization_18: BatchNormalization</text>
<polyline fill="none" points="345.5,-1245.5 345.5,-1291.5 " stroke="black"/>
<text font-family="Times,serif" font-size="14.00" text-anchor="middle" x="379.5" y="-1276.3">input:</text>
<polyline fill="none" points="345.5,-1268.5 413.5,-1268.5 " stroke="black"/>
<text font-family="Times,serif" font-size="14.00" text-anchor="middle" x="379.5" y="-1253.3">output:</text>
<polyline fill="none" points="413.5,-1245.5 413.5,-1291.5 " stroke="black"/>
<text font-family="Times,serif" font-size="14.00" text-anchor="middle" x="473" y="-1276.3">(None, 10, 40)</text>
<polyline fill="none" points="413.5,-1268.5 532.5,-1268.5 " stroke="black"/>
<text font-family="Times,serif" font-size="14.00" text-anchor="middle" x="473" y="-1253.3">(None, 10, 40)</text>
</g>
<!-- 139976846936496&#45;&gt;139976846744656 -->
<g class="edge" id="edge15"><title>139976846936496-&gt;139976846744656</title>
<path d="M268.5,-1328.37C268.5,-1320.15 268.5,-1310.66 268.5,-1301.73" fill="none" stroke="black"/>
<polygon fill="black" points="272,-1301.61 268.5,-1291.61 265,-1301.61 272,-1301.61" stroke="black"/>
</g>
<!-- 139976846832976 -->
<g class="node" id="node17"><title>139976846832976</title>
<polygon fill="none" points="92,-1162.5 92,-1208.5 445,-1208.5 445,-1162.5 92,-1162.5" stroke="black"/>
<text font-family="Times,serif" font-size="14.00" text-anchor="middle" x="175" y="-1181.8">dropout_15: Dropout</text>
<polyline fill="none" points="258,-1162.5 258,-1208.5 " stroke="black"/>
<text font-family="Times,serif" font-size="14.00" text-anchor="middle" x="292" y="-1193.3">input:</text>
<polyline fill="none" points="258,-1185.5 326,-1185.5 " stroke="black"/>
<text font-family="Times,serif" font-size="14.00" text-anchor="middle" x="292" y="-1170.3">output:</text>
<polyline fill="none" points="326,-1162.5 326,-1208.5 " stroke="black"/>
<text font-family="Times,serif" font-size="14.00" text-anchor="middle" x="385.5" y="-1193.3">(None, 10, 40)</text>
<polyline fill="none" points="326,-1185.5 445,-1185.5 " stroke="black"/>
<text font-family="Times,serif" font-size="14.00" text-anchor="middle" x="385.5" y="-1170.3">(None, 10, 40)</text>
</g>
<!-- 139976846744656&#45;&gt;139976846832976 -->
<g class="edge" id="edge16"><title>139976846744656-&gt;139976846832976</title>
<path d="M268.5,-1245.37C268.5,-1237.15 268.5,-1227.66 268.5,-1218.73" fill="none" stroke="black"/>
<polygon fill="black" points="272,-1218.61 268.5,-1208.61 265,-1218.61 272,-1218.61" stroke="black"/>
</g>
<!-- 139976846491096 -->
<g class="node" id="node18"><title>139976846491096</title>
<polygon fill="none" points="95,-1079.5 95,-1125.5 442,-1125.5 442,-1079.5 95,-1079.5" stroke="black"/>
<text font-family="Times,serif" font-size="14.00" text-anchor="middle" x="175" y="-1098.8">conv1d_14: Conv1D</text>
<polyline fill="none" points="255,-1079.5 255,-1125.5 " stroke="black"/>
<text font-family="Times,serif" font-size="14.00" text-anchor="middle" x="289" y="-1110.3">input:</text>
<polyline fill="none" points="255,-1102.5 323,-1102.5 " stroke="black"/>
<text font-family="Times,serif" font-size="14.00" text-anchor="middle" x="289" y="-1087.3">output:</text>
<polyline fill="none" points="323,-1079.5 323,-1125.5 " stroke="black"/>
<text font-family="Times,serif" font-size="14.00" text-anchor="middle" x="382.5" y="-1110.3">(None, 10, 40)</text>
<polyline fill="none" points="323,-1102.5 442,-1102.5 " stroke="black"/>
<text font-family="Times,serif" font-size="14.00" text-anchor="middle" x="382.5" y="-1087.3">(None, 10, 80)</text>
</g>
<!-- 139976846832976&#45;&gt;139976846491096 -->
<g class="edge" id="edge17"><title>139976846832976-&gt;139976846491096</title>
<path d="M268.5,-1162.37C268.5,-1154.15 268.5,-1144.66 268.5,-1135.73" fill="none" stroke="black"/>
<polygon fill="black" points="272,-1135.61 268.5,-1125.61 265,-1135.61 272,-1135.61" stroke="black"/>
</g>
<!-- 139976845878720 -->
<g class="node" id="node19"><title>139976845878720</title>
<polygon fill="none" points="123,-996.5 123,-1042.5 414,-1042.5 414,-996.5 123,-996.5" stroke="black"/>
<text font-family="Times,serif" font-size="14.00" text-anchor="middle" x="175" y="-1015.8">elu_14: ELU</text>
<polyline fill="none" points="227,-996.5 227,-1042.5 " stroke="black"/>
<text font-family="Times,serif" font-size="14.00" text-anchor="middle" x="261" y="-1027.3">input:</text>
<polyline fill="none" points="227,-1019.5 295,-1019.5 " stroke="black"/>
<text font-family="Times,serif" font-size="14.00" text-anchor="middle" x="261" y="-1004.3">output:</text>
<polyline fill="none" points="295,-996.5 295,-1042.5 " stroke="black"/>
<text font-family="Times,serif" font-size="14.00" text-anchor="middle" x="354.5" y="-1027.3">(None, 10, 80)</text>
<polyline fill="none" points="295,-1019.5 414,-1019.5 " stroke="black"/>
<text font-family="Times,serif" font-size="14.00" text-anchor="middle" x="354.5" y="-1004.3">(None, 10, 80)</text>
</g>
<!-- 139976846491096&#45;&gt;139976845878720 -->
<g class="edge" id="edge18"><title>139976846491096-&gt;139976845878720</title>
<path d="M268.5,-1079.37C268.5,-1071.15 268.5,-1061.66 268.5,-1052.73" fill="none" stroke="black"/>
<polygon fill="black" points="272,-1052.61 268.5,-1042.61 265,-1052.61 272,-1052.61" stroke="black"/>
</g>
<!-- 139976845616968 -->
<g class="node" id="node20"><title>139976845616968</title>
<polygon fill="none" points="43.5,-913.5 43.5,-959.5 493.5,-959.5 493.5,-913.5 43.5,-913.5" stroke="black"/>
<text font-family="Times,serif" font-size="14.00" text-anchor="middle" x="175" y="-932.8">max_pooling1d_12: MaxPooling1D</text>
<polyline fill="none" points="306.5,-913.5 306.5,-959.5 " stroke="black"/>
<text font-family="Times,serif" font-size="14.00" text-anchor="middle" x="340.5" y="-944.3">input:</text>
<polyline fill="none" points="306.5,-936.5 374.5,-936.5 " stroke="black"/>
<text font-family="Times,serif" font-size="14.00" text-anchor="middle" x="340.5" y="-921.3">output:</text>
<polyline fill="none" points="374.5,-913.5 374.5,-959.5 " stroke="black"/>
<text font-family="Times,serif" font-size="14.00" text-anchor="middle" x="434" y="-944.3">(None, 10, 80)</text>
<polyline fill="none" points="374.5,-936.5 493.5,-936.5 " stroke="black"/>
<text font-family="Times,serif" font-size="14.00" text-anchor="middle" x="434" y="-921.3">(None, 5, 80)</text>
</g>
<!-- 139976845878720&#45;&gt;139976845616968 -->
<g class="edge" id="edge19"><title>139976845878720-&gt;139976845616968</title>
<path d="M268.5,-996.366C268.5,-988.152 268.5,-978.658 268.5,-969.725" fill="none" stroke="black"/>
<polygon fill="black" points="272,-969.607 268.5,-959.607 265,-969.607 272,-969.607" stroke="black"/>
</g>
<!-- 139976845421032 -->
<g class="node" id="node21"><title>139976845421032</title>
<polygon fill="none" points="9,-830.5 9,-876.5 528,-876.5 528,-830.5 9,-830.5" stroke="black"/>
<text font-family="Times,serif" font-size="14.00" text-anchor="middle" x="179.5" y="-849.8">batch_normalization_19: BatchNormalization</text>
<polyline fill="none" points="350,-830.5 350,-876.5 " stroke="black"/>
<text font-family="Times,serif" font-size="14.00" text-anchor="middle" x="384" y="-861.3">input:</text>
<polyline fill="none" points="350,-853.5 418,-853.5 " stroke="black"/>
<text font-family="Times,serif" font-size="14.00" text-anchor="middle" x="384" y="-838.3">output:</text>
<polyline fill="none" points="418,-830.5 418,-876.5 " stroke="black"/>
<text font-family="Times,serif" font-size="14.00" text-anchor="middle" x="473" y="-861.3">(None, 5, 80)</text>
<polyline fill="none" points="418,-853.5 528,-853.5 " stroke="black"/>
<text font-family="Times,serif" font-size="14.00" text-anchor="middle" x="473" y="-838.3">(None, 5, 80)</text>
</g>
<!-- 139976845616968&#45;&gt;139976845421032 -->
<g class="edge" id="edge20"><title>139976845616968-&gt;139976845421032</title>
<path d="M268.5,-913.366C268.5,-905.152 268.5,-895.658 268.5,-886.725" fill="none" stroke="black"/>
<polygon fill="black" points="272,-886.607 268.5,-876.607 265,-886.607 272,-886.607" stroke="black"/>
</g>
<!-- 139976845501160 -->
<g class="node" id="node22"><title>139976845501160</title>
<polygon fill="none" points="96.5,-747.5 96.5,-793.5 440.5,-793.5 440.5,-747.5 96.5,-747.5" stroke="black"/>
<text font-family="Times,serif" font-size="14.00" text-anchor="middle" x="179.5" y="-766.8">dropout_16: Dropout</text>
<polyline fill="none" points="262.5,-747.5 262.5,-793.5 " stroke="black"/>
<text font-family="Times,serif" font-size="14.00" text-anchor="middle" x="296.5" y="-778.3">input:</text>
<polyline fill="none" points="262.5,-770.5 330.5,-770.5 " stroke="black"/>
<text font-family="Times,serif" font-size="14.00" text-anchor="middle" x="296.5" y="-755.3">output:</text>
<polyline fill="none" points="330.5,-747.5 330.5,-793.5 " stroke="black"/>
<text font-family="Times,serif" font-size="14.00" text-anchor="middle" x="385.5" y="-778.3">(None, 5, 80)</text>
<polyline fill="none" points="330.5,-770.5 440.5,-770.5 " stroke="black"/>
<text font-family="Times,serif" font-size="14.00" text-anchor="middle" x="385.5" y="-755.3">(None, 5, 80)</text>
</g>
<!-- 139976845421032&#45;&gt;139976845501160 -->
<g class="edge" id="edge21"><title>139976845421032-&gt;139976845501160</title>
<path d="M268.5,-830.366C268.5,-822.152 268.5,-812.658 268.5,-803.725" fill="none" stroke="black"/>
<polygon fill="black" points="272,-803.607 268.5,-793.607 265,-803.607 272,-803.607" stroke="black"/>
</g>
<!-- 139976845082184 -->
<g class="node" id="node23"><title>139976845082184</title>
<polygon fill="none" points="95,-664.5 95,-710.5 442,-710.5 442,-664.5 95,-664.5" stroke="black"/>
<text font-family="Times,serif" font-size="14.00" text-anchor="middle" x="175" y="-683.8">conv1d_15: Conv1D</text>
<polyline fill="none" points="255,-664.5 255,-710.5 " stroke="black"/>
<text font-family="Times,serif" font-size="14.00" text-anchor="middle" x="289" y="-695.3">input:</text>
<polyline fill="none" points="255,-687.5 323,-687.5 " stroke="black"/>
<text font-family="Times,serif" font-size="14.00" text-anchor="middle" x="289" y="-672.3">output:</text>
<polyline fill="none" points="323,-664.5 323,-710.5 " stroke="black"/>
<text font-family="Times,serif" font-size="14.00" text-anchor="middle" x="382.5" y="-695.3">(None, 5, 80)</text>
<polyline fill="none" points="323,-687.5 442,-687.5 " stroke="black"/>
<text font-family="Times,serif" font-size="14.00" text-anchor="middle" x="382.5" y="-672.3">(None, 5, 160)</text>
</g>
<!-- 139976845501160&#45;&gt;139976845082184 -->
<g class="edge" id="edge22"><title>139976845501160-&gt;139976845082184</title>
<path d="M268.5,-747.366C268.5,-739.152 268.5,-729.658 268.5,-720.725" fill="none" stroke="black"/>
<polygon fill="black" points="272,-720.607 268.5,-710.607 265,-720.607 272,-720.607" stroke="black"/>
</g>
<!-- 139976845079160 -->
<g class="node" id="node24"><title>139976845079160</title>
<polygon fill="none" points="123,-581.5 123,-627.5 414,-627.5 414,-581.5 123,-581.5" stroke="black"/>
<text font-family="Times,serif" font-size="14.00" text-anchor="middle" x="175" y="-600.8">elu_15: ELU</text>
<polyline fill="none" points="227,-581.5 227,-627.5 " stroke="black"/>
<text font-family="Times,serif" font-size="14.00" text-anchor="middle" x="261" y="-612.3">input:</text>
<polyline fill="none" points="227,-604.5 295,-604.5 " stroke="black"/>
<text font-family="Times,serif" font-size="14.00" text-anchor="middle" x="261" y="-589.3">output:</text>
<polyline fill="none" points="295,-581.5 295,-627.5 " stroke="black"/>
<text font-family="Times,serif" font-size="14.00" text-anchor="middle" x="354.5" y="-612.3">(None, 5, 160)</text>
<polyline fill="none" points="295,-604.5 414,-604.5 " stroke="black"/>
<text font-family="Times,serif" font-size="14.00" text-anchor="middle" x="354.5" y="-589.3">(None, 5, 160)</text>
</g>
<!-- 139976845082184&#45;&gt;139976845079160 -->
<g class="edge" id="edge23"><title>139976845082184-&gt;139976845079160</title>
<path d="M268.5,-664.366C268.5,-656.152 268.5,-646.658 268.5,-637.725" fill="none" stroke="black"/>
<polygon fill="black" points="272,-637.607 268.5,-627.607 265,-637.607 272,-637.607" stroke="black"/>
</g>
<!-- 139976844835752 -->
<g class="node" id="node25"><title>139976844835752</title>
<polygon fill="none" points="4.5,-498.5 4.5,-544.5 532.5,-544.5 532.5,-498.5 4.5,-498.5" stroke="black"/>
<text font-family="Times,serif" font-size="14.00" text-anchor="middle" x="175" y="-517.8">batch_normalization_20: BatchNormalization</text>
<polyline fill="none" points="345.5,-498.5 345.5,-544.5 " stroke="black"/>
<text font-family="Times,serif" font-size="14.00" text-anchor="middle" x="379.5" y="-529.3">input:</text>
<polyline fill="none" points="345.5,-521.5 413.5,-521.5 " stroke="black"/>
<text font-family="Times,serif" font-size="14.00" text-anchor="middle" x="379.5" y="-506.3">output:</text>
<polyline fill="none" points="413.5,-498.5 413.5,-544.5 " stroke="black"/>
<text font-family="Times,serif" font-size="14.00" text-anchor="middle" x="473" y="-529.3">(None, 5, 160)</text>
<polyline fill="none" points="413.5,-521.5 532.5,-521.5 " stroke="black"/>
<text font-family="Times,serif" font-size="14.00" text-anchor="middle" x="473" y="-506.3">(None, 5, 160)</text>
</g>
<!-- 139976845079160&#45;&gt;139976844835752 -->
<g class="edge" id="edge24"><title>139976845079160-&gt;139976844835752</title>
<path d="M268.5,-581.366C268.5,-573.152 268.5,-563.658 268.5,-554.725" fill="none" stroke="black"/>
<polygon fill="black" points="272,-554.607 268.5,-544.607 265,-554.607 272,-554.607" stroke="black"/>
</g>
<!-- 139976844109696 -->
<g class="node" id="node26"><title>139976844109696</title>
<polygon fill="none" points="92,-415.5 92,-461.5 445,-461.5 445,-415.5 92,-415.5" stroke="black"/>
<text font-family="Times,serif" font-size="14.00" text-anchor="middle" x="175" y="-434.8">dropout_17: Dropout</text>
<polyline fill="none" points="258,-415.5 258,-461.5 " stroke="black"/>
<text font-family="Times,serif" font-size="14.00" text-anchor="middle" x="292" y="-446.3">input:</text>
<polyline fill="none" points="258,-438.5 326,-438.5 " stroke="black"/>
<text font-family="Times,serif" font-size="14.00" text-anchor="middle" x="292" y="-423.3">output:</text>
<polyline fill="none" points="326,-415.5 326,-461.5 " stroke="black"/>
<text font-family="Times,serif" font-size="14.00" text-anchor="middle" x="385.5" y="-446.3">(None, 5, 160)</text>
<polyline fill="none" points="326,-438.5 445,-438.5 " stroke="black"/>
<text font-family="Times,serif" font-size="14.00" text-anchor="middle" x="385.5" y="-423.3">(None, 5, 160)</text>
</g>
<!-- 139976844835752&#45;&gt;139976844109696 -->
<g class="edge" id="edge25"><title>139976844835752-&gt;139976844109696</title>
<path d="M268.5,-498.366C268.5,-490.152 268.5,-480.658 268.5,-471.725" fill="none" stroke="black"/>
<polygon fill="black" points="272,-471.607 268.5,-461.607 265,-471.607 272,-471.607" stroke="black"/>
</g>
<!-- 139976843752392 -->
<g class="node" id="node27"><title>139976843752392</title>
<polygon fill="none" points="104.5,-332.5 104.5,-378.5 432.5,-378.5 432.5,-332.5 104.5,-332.5" stroke="black"/>
<text font-family="Times,serif" font-size="14.00" text-anchor="middle" x="175" y="-351.8">flatten_3: Flatten</text>
<polyline fill="none" points="245.5,-332.5 245.5,-378.5 " stroke="black"/>
<text font-family="Times,serif" font-size="14.00" text-anchor="middle" x="279.5" y="-363.3">input:</text>
<polyline fill="none" points="245.5,-355.5 313.5,-355.5 " stroke="black"/>
<text font-family="Times,serif" font-size="14.00" text-anchor="middle" x="279.5" y="-340.3">output:</text>
<polyline fill="none" points="313.5,-332.5 313.5,-378.5 " stroke="black"/>
<text font-family="Times,serif" font-size="14.00" text-anchor="middle" x="373" y="-363.3">(None, 5, 160)</text>
<polyline fill="none" points="313.5,-355.5 432.5,-355.5 " stroke="black"/>
<text font-family="Times,serif" font-size="14.00" text-anchor="middle" x="373" y="-340.3">(None, 800)</text>
</g>
<!-- 139976844109696&#45;&gt;139976843752392 -->
<g class="edge" id="edge26"><title>139976844109696-&gt;139976843752392</title>
<path d="M268.5,-415.366C268.5,-407.152 268.5,-397.658 268.5,-388.725" fill="none" stroke="black"/>
<polygon fill="black" points="272,-388.607 268.5,-378.607 265,-388.607 272,-388.607" stroke="black"/>
</g>
<!-- 139976843663456 -->
<g class="node" id="node28"><title>139976843663456</title>
<polygon fill="none" points="120,-249.5 120,-295.5 417,-295.5 417,-249.5 120,-249.5" stroke="black"/>
<text font-family="Times,serif" font-size="14.00" text-anchor="middle" x="184" y="-268.8">dense_5: Dense</text>
<polyline fill="none" points="248,-249.5 248,-295.5 " stroke="black"/>
<text font-family="Times,serif" font-size="14.00" text-anchor="middle" x="282" y="-280.3">input:</text>
<polyline fill="none" points="248,-272.5 316,-272.5 " stroke="black"/>
<text font-family="Times,serif" font-size="14.00" text-anchor="middle" x="282" y="-257.3">output:</text>
<polyline fill="none" points="316,-249.5 316,-295.5 " stroke="black"/>
<text font-family="Times,serif" font-size="14.00" text-anchor="middle" x="366.5" y="-280.3">(None, 800)</text>
<polyline fill="none" points="316,-272.5 417,-272.5 " stroke="black"/>
<text font-family="Times,serif" font-size="14.00" text-anchor="middle" x="366.5" y="-257.3">(None, 10)</text>
</g>
<!-- 139976843752392&#45;&gt;139976843663456 -->
<g class="edge" id="edge27"><title>139976843752392-&gt;139976843663456</title>
<path d="M268.5,-332.366C268.5,-324.152 268.5,-314.658 268.5,-305.725" fill="none" stroke="black"/>
<polygon fill="black" points="272,-305.607 268.5,-295.607 265,-305.607 272,-305.607" stroke="black"/>
</g>
<!-- 139976842793312 -->
<g class="node" id="node29"><title>139976842793312</title>
<polygon fill="none" points="18,-166.5 18,-212.5 519,-212.5 519,-166.5 18,-166.5" stroke="black"/>
<text font-family="Times,serif" font-size="14.00" text-anchor="middle" x="188.5" y="-185.8">batch_normalization_21: BatchNormalization</text>
<polyline fill="none" points="359,-166.5 359,-212.5 " stroke="black"/>
<text font-family="Times,serif" font-size="14.00" text-anchor="middle" x="393" y="-197.3">input:</text>
<polyline fill="none" points="359,-189.5 427,-189.5 " stroke="black"/>
<text font-family="Times,serif" font-size="14.00" text-anchor="middle" x="393" y="-174.3">output:</text>
<polyline fill="none" points="427,-166.5 427,-212.5 " stroke="black"/>
<text font-family="Times,serif" font-size="14.00" text-anchor="middle" x="473" y="-197.3">(None, 10)</text>
<polyline fill="none" points="427,-189.5 519,-189.5 " stroke="black"/>
<text font-family="Times,serif" font-size="14.00" text-anchor="middle" x="473" y="-174.3">(None, 10)</text>
</g>
<!-- 139976843663456&#45;&gt;139976842793312 -->
<g class="edge" id="edge28"><title>139976843663456-&gt;139976842793312</title>
<path d="M268.5,-249.366C268.5,-241.152 268.5,-231.658 268.5,-222.725" fill="none" stroke="black"/>
<polygon fill="black" points="272,-222.607 268.5,-212.607 265,-222.607 272,-222.607" stroke="black"/>
</g>
<!-- 139976842795832 -->
<g class="node" id="node30"><title>139976842795832</title>
<polygon fill="none" points="105.5,-83.5 105.5,-129.5 431.5,-129.5 431.5,-83.5 105.5,-83.5" stroke="black"/>
<text font-family="Times,serif" font-size="14.00" text-anchor="middle" x="188.5" y="-102.8">dropout_18: Dropout</text>
<polyline fill="none" points="271.5,-83.5 271.5,-129.5 " stroke="black"/>
<text font-family="Times,serif" font-size="14.00" text-anchor="middle" x="305.5" y="-114.3">input:</text>
<polyline fill="none" points="271.5,-106.5 339.5,-106.5 " stroke="black"/>
<text font-family="Times,serif" font-size="14.00" text-anchor="middle" x="305.5" y="-91.3">output:</text>
<polyline fill="none" points="339.5,-83.5 339.5,-129.5 " stroke="black"/>
<text font-family="Times,serif" font-size="14.00" text-anchor="middle" x="385.5" y="-114.3">(None, 10)</text>
<polyline fill="none" points="339.5,-106.5 431.5,-106.5 " stroke="black"/>
<text font-family="Times,serif" font-size="14.00" text-anchor="middle" x="385.5" y="-91.3">(None, 10)</text>
</g>
<!-- 139976842793312&#45;&gt;139976842795832 -->
<g class="edge" id="edge29"><title>139976842793312-&gt;139976842795832</title>
<path d="M268.5,-166.366C268.5,-158.152 268.5,-148.658 268.5,-139.725" fill="none" stroke="black"/>
<polygon fill="black" points="272,-139.607 268.5,-129.607 265,-139.607 272,-139.607" stroke="black"/>
</g>
<!-- 139976842466192 -->
<g class="node" id="node31"><title>139976842466192</title>
<polygon fill="none" points="124.5,-0.5 124.5,-46.5 412.5,-46.5 412.5,-0.5 124.5,-0.5" stroke="black"/>
<text font-family="Times,serif" font-size="14.00" text-anchor="middle" x="188.5" y="-19.8">dense_6: Dense</text>
<polyline fill="none" points="252.5,-0.5 252.5,-46.5 " stroke="black"/>
<text font-family="Times,serif" font-size="14.00" text-anchor="middle" x="286.5" y="-31.3">input:</text>
<polyline fill="none" points="252.5,-23.5 320.5,-23.5 " stroke="black"/>
<text font-family="Times,serif" font-size="14.00" text-anchor="middle" x="286.5" y="-8.3">output:</text>
<polyline fill="none" points="320.5,-0.5 320.5,-46.5 " stroke="black"/>
<text font-family="Times,serif" font-size="14.00" text-anchor="middle" x="366.5" y="-31.3">(None, 10)</text>
<polyline fill="none" points="320.5,-23.5 412.5,-23.5 " stroke="black"/>
<text font-family="Times,serif" font-size="14.00" text-anchor="middle" x="366.5" y="-8.3">(None, 2)</text>
</g>
<!-- 139976842795832&#45;&gt;139976842466192 -->
<g class="edge" id="edge30"><title>139976842795832-&gt;139976842466192</title>
<path d="M268.5,-83.3664C268.5,-75.1516 268.5,-65.6579 268.5,-56.7252" fill="none" stroke="black"/>
<polygon fill="black" points="272,-56.6068 268.5,-46.6068 265,-56.6069 272,-56.6068" stroke="black"/>
</g>
</g>
</svg>